
@startuml
hide empty methods

class FieldFilter {
        StringType field
        StringFilter strFilter
        EnumFilter enumFilter
        UuidFilter uuidFilter
        NumericFilter numFilter
        DateFilter dateFilter
        BooleanFilter boolFilter
}


class StringFilter {
        StringFilterOperator operator
        StringType[] values
}


class EnumFilter {
        EnumFilterOperator operator
        StringType[] values
}


class UuidFilter {
        UuidFilterOperator operator
        StringType[] values
}


class NumericFilter {
        NumericFilterOperator operator
        NumberType[] values
}


class DateFilter {
        NumericFilterOperator operator
        DateTimeType[] values
}


class BooleanFilter {
        BooleanFilterOperator operator
        BooleanType value
}


enum NumericFilterOperator {
    EQ
    NE
    LT
    LE
    GT
    GE
    IB
    EB
    IN
    NI
}


enum StringFilterOperator {
    EQ
    NE
    MA
    IN
    NI
}


enum EnumFilterOperator {
    EQ
    NE
    IN
    NI
}


enum UuidFilterOperator {
    EQ
    NE
    IN
    NI
}


enum BooleanFilterOperator {
    EQ
    NE
}


enum SortDirection {
    ASC
    DESC
}


class FieldSort {
        StringType field
        SortDirection direction
}



    

FieldFilter  *--  StringFilter
            

FieldFilter  *--  EnumFilter
            

FieldFilter  *--  UuidFilter
            

FieldFilter  *--  NumericFilter
            

FieldFilter  *--  DateFilter
            

FieldFilter  *--  BooleanFilter
            

    
StringFilter  *--  StringFilterOperator
            


    
EnumFilter  *--  EnumFilterOperator
            


    
UuidFilter  *--  UuidFilterOperator
            


    
NumericFilter  *--  NumericFilterOperator
            


    
DateFilter  *--  NumericFilterOperator
            


    
BooleanFilter  *--  BooleanFilterOperator
            


    
    
    
    
    
    
    

FieldSort  *--  SortDirection
            


footer \ngenerated with yacg (https://github.com/OkieOth/yacg),\n(template: plantUml.mako v1.1.0)\npowered by plantuml (https://plantuml.com/)
@enduml